:FULLY-SPECIFIED
:FORCE-ALL-JOINTS-BE-3DOF
:DEGREES
781
root 1.49495 16.3664 18.8596 -8.91167 73.8998 -15.3971
lfemur -38.8678 16.0315 -15.5286
ltibia 51.4556 -0 0
lfoot -22.1157 19.8259 -0.141303
ltoes 20.2194 -0 0
rfemur -14.7001 -23.0767 22.0422
rtibia 49.6641 -0 0
rfoot -21.5132 -34.7735 -0.567378
rtoes -25.9121 0 0
lowerback 0.965745 4.65622 -0.72224
upperback -1.0419 6.19218 -3.80341
thorax -1.26194 3.10759 -3.6142
lowerneck -5.33972 -6.51867 -0.700601
upperneck -2.76538 -8.55533 5.27768
head 0.310017 -4.20777 1.57998
lclavicle 6.59965e-14 -6.36111e-15 0
lhumerus -55.964 -11.357 94.7049
lradius 70.8169 -0 0
lwrist 12.9625 0 0
lhand -18.8573 -4.8399 0.0374015
lfingers 7.12502 -0 0
lthumb 7.44277 25.0128 0.0347839
rclavicle 6.59965e-14 -6.36111e-15 0
rhumerus -31.0968 47.7967 -112.377
rradius 79.041 -0 0
rwrist 6.2076 0 0
rhand -23.2594 -20.7548 -0.0166596
rfingers 7.12502 -0 0
rthumb 3.19279 -50.7146 -0.0165336
782
root 1.44483 16.3927 18.9625 -5.56805 70.3461 -12.0452
lfemur -38.8226 15.0547 -15.0615
ltibia 51.3269 -0 0
lfoot -21.7548 18.756 -0.182473
ltoes 19.8937 -0 0
rfemur -14.3957 -22.1006 21.9328
rtibia 48.5505 -0 0
rfoot -22.215 -34.2785 -0.713952
rtoes -26.5371 0 0
lowerback 0.937767 4.6441 -0.488643
upperback -1.0156 6.1787 -3.71026
thorax -1.20492 3.09879 -3.64168
lowerneck -5.37305 -6.34853 -0.595692
upperneck -2.71625 -8.33988 5.1338
head 0.314283 -4.10239 1.52295
lclavicle 6.59965e-14 -6.36111e-15 0
lhumerus -56.0318 -11.2188 94.6803
lradius 70.7563 -0 0
lwrist 13.5265 0 0
lhand -18.3876 -4.38302 0.0498494
lfingers 7.12502 -0 0
lthumb 7.89609 25.4542 0.0463593
rclavicle 6.59965e-14 -6.36111e-15 0
rhumerus -31.6032 47.548 -112.73
rradius 78.6097 -0 0
rwrist 6.09455 0 0
rhand -23.2995 -21.164 -0.0232884
rfingers 7.12502 -0 0
rthumb 3.15409 -51.1254 -0.0230489
783
root 1.40516 16.4166 19.0452 -3.24502 66.6762 -9.71685
lfemur -38.7956 13.9893 -14.5812
ltibia 51.2186 -0 0
lfoot -21.3982 17.5466 -0.21748
ltoes 19.5038 -0 0
rfemur -14.0967 -21.0555 21.8163
rtibia 47.4591 -0 0
rfoot -22.8603 -33.6338 -0.834701
rtoes -27.0353 0 0
lowerback 0.917896 4.63342 -0.24345
upperback -0.984279 6.16715 -3.60696
thorax -1.14716 3.09096 -3.66579
lowerneck -5.40928 -6.17 -0.484848
upperneck -2.65822 -8.11411 4.97974
head 0.32118 -3.99186 1.46171
lclavicle 6.59965e-14 -6.36111e-15 0
lhumerus -56.0846 -11.0655 94.6367
lradius 70.6539 -0 0
lwrist 14.1475 0 0
lhand -17.9083 -3.89052 0.0607119
lfingers 7.12502 -0 0
lthumb 8.35861 25.9299 0.0564576
rclavicle 6.59965e-14 -6.36111e-15 0
rhumerus -32.0953 47.2984 -113.079
rradius 78.1623 -0 0
rwrist 5.96913 0 0
rhand -23.3221 -21.6047 -0.0301311
rfingers 7.12502 -0 0
rthumb 3.13225 -51.5672 -0.0297515
784
root 1.37516 16.4384 19.111 -1.56445 62.9451 -8.03373
lfemur -38.7878 12.8497 -14.0926
ltibia 51.1306 -0 0
lfoot -21.0488 16.2156 -0.244945
ltoes 19.0566 -0 0
rfemur -13.8061 -19.9544 21.6947
rtibia 46.3984 -0 0
rfoot -23.4466 -32.8535 -0.928152
rtoes -27.4088 0 0
lowerback 0.90588 4.62415 0.0105447
upperback -0.948489 6.15752 -3.49496
thorax -1.08921 3.08411 -3.68647
lowerneck -5.44787 -5.9851 -0.369399
upperneck -2.5924 -7.88053 4.81748
head 0.330481 -3.87743 1.39703
lclavicle 6.59965e-14 -6.36111e-15 0
lhumerus -56.1229 -10.8993 94.5756
lradius 70.513 -0 0
lwrist 14.8169 0 0
lhand -17.4242 -3.36865 0.069275
lfingers 7.12502 -0 0
lthumb 8.82575 26.4339 0.0644141
rclavicle 6.59965e-14 -6.36111e-15 0
rhumerus -32.5696 47.0503 -113.418
rradius 77.7036 -0 0
rwrist 5.83311 0 0
rhand -23.328 -22.0712 -0.0369505
rfingers 7.12502 -0 0
rthumb 3.12658 -52.0345 -0.0364117
785
root 1.35406 16.4582 19.1633 -0.310447 59.1998 -6.7799
lfemur -38.7997 11.6501 -13.6003
ltibia 51.0626 -0 0
lfoot -20.7097 14.7814 -0.263892
ltoes 18.5589 -0 0
rfemur -13.5268 -18.81 21.5701
rtibia 45.3769 -0 0
rfoot -23.9708 -31.9518 -0.993625
rtoes -27.6602 0 0
lowerback 0.901469 4.61626 0.270551
upperback -0.908768 6.14979 -3.37572
thorax -1.03162 3.07825 -3.70371
lowerneck -5.48831 -5.79584 -0.250668
upperneck -2.51988 -7.64164 4.64901
head 0.341966 -3.76036 1.32971
lclavicle 6.59965e-14 -6.36111e-15 0
lhumerus -56.147 -10.7223 94.4983
lradius 70.3366 -0 0
lwrist 15.5263 0 0
lhand -16.9401 -2.82369 0.0750063
lfingers 7.12502 -0 0
lthumb 9.29291 26.9602 0.0697334
rclavicle 6.59965e-14 -6.36111e-15 0
rhumerus -33.0224 46.806 -113.747
rradius 77.2384 -0 0
rwrist 5.68827 0 0
rhand -23.3179 -22.5581 -0.0434952
rfingers 7.12502 -0 0
rthumb 3.13637 -52.5217 -0.0427866
